<svg xmlns="http://www.w3.org/2000/svg" viewBox="0 0 56.69 56.69"><defs><style>.a{fill:#fff;}.b{fill:#d01609;}</style></defs><title>アセット 4</title><circle class="a" cx="28.35" cy="28.35" r="28.35"/><path class="b" d="M29.13,7l4.74,11.73a2.27,2.27,0,0,0,2,1.42l12,.55a.84.84,0,0,1,.51,1.47l-9.17,7.92a2.28,2.28,0,0,0-.73,2.24l2.77,11.89a.84.84,0,0,1-1.27.9L29.57,38.53a2.29,2.29,0,0,0-2.44,0L16.71,45.15a.84.84,0,0,1-1.27-.9l2.77-11.89a2.28,2.28,0,0,0-.73-2.24L8.31,22.2a.84.84,0,0,1,.51-1.47l12-.55a2.26,2.26,0,0,0,2-1.42L27.57,7A.84.84,0,0,1,29.13,7Z"/></svg>